<svg width="128" height="58" viewBox="0 0 128 58" fill="none" xmlns="http://www.w3.org/2000/svg">
<g filter="url(#filter0_d_1_312)">
<path fill-rule="evenodd" clip-rule="evenodd" d="M8.8715 1.18665L6.59963 1.06278L5.66317 0.865113L5.47588 0.494156C5.47588 0.148247 5.70999 0 6.17886 0H29.6717C40.6802 0 48.4092 3.53491 52.9067 10.6291C55.4833 14.7326 56.7712 19.6025 56.7712 25.2385C56.7712 28.1805 56.3498 31.0229 55.4826 33.7665C54.4994 36.659 53.1409 39.2056 51.384 41.4801C49.463 43.877 47.1212 45.7318 44.4273 47.0911C41.5461 48.4754 38.3141 49.1923 34.6837 49.1923H4.72607C4.23411 49.1923 4 49.019 4 48.7232C4 48.4016 4.35149 48.229 5.00701 48.229L10.7457 47.8587C11.636 47.7342 12.2684 47.4621 12.5731 47.0918L13.1587 46.226C13.3697 45.6337 13.4871 44.7442 13.5102 43.5325V4.32624C13.5102 2.79368 12.6904 1.8541 11.0978 1.48315L8.8715 1.18665ZM21.5201 1.8541L21.3559 2.84309V46.3742C21.3559 46.8684 21.4495 47.2136 21.6368 47.3382L22.5739 47.4864H25.6655L32.8326 47.2143C34.753 46.9923 36.3924 46.6707 37.681 46.2253C38.9689 45.7318 40.187 45.0143 41.2408 44.1499C42.1779 43.3342 43.1381 42.1719 44.1926 40.6887C45.9487 38.2667 47.2136 35.1765 47.9865 31.3945C48.4547 28.9237 48.6895 26.5254 48.6895 24.2265C48.6895 22.1998 48.4085 20.0242 47.8229 17.6759C47.0032 14.2892 45.7615 11.323 44.0046 8.8014C40.6084 3.90722 35.0339 1.4845 27.328 1.4845H22.5733C22.0351 1.43373 21.6836 1.55761 21.5201 1.8541ZM61.3849 48.8213C61.3381 48.5241 61.5722 48.401 62.0879 48.401L63.7273 48.3509C64.6176 48.2277 65.1564 47.9068 65.3667 47.412L65.6714 45.6323V31.27C65.6714 30.7264 65.4835 30.306 65.1326 30.0589L63.9146 29.9344L62.2752 30.4048L61.3849 30.3548C61.2675 30.0583 61.619 29.7861 62.4387 29.5391C64.3828 28.9955 66.0935 28.303 67.545 27.4379C68.4346 26.8943 69.067 26.5971 69.348 26.4739L70.0509 26.4001C70.2851 26.4489 70.4031 26.9437 70.4031 27.8332V45.9275C70.4031 46.7919 70.5897 47.4106 70.9419 47.7809C71.3626 48.2263 72.3472 48.4483 73.8693 48.4483C74.408 48.4483 74.6883 48.5729 74.7364 48.8437C74.7364 49.067 74.5722 49.1408 74.2907 49.1408H61.8063C61.5253 49.1429 61.3849 49.0183 61.3849 48.8213ZM116.661 31.0229C115.514 32.284 114.741 33.7665 114.319 35.5461V46.0527C114.319 46.9916 114.624 47.659 115.256 48.0794L116.686 48.3502L118.184 48.5235C118.536 48.5736 118.677 48.648 118.677 48.845L118.607 49.0183L118.209 49.1429H105.677C105.303 49.1429 105.092 49.0183 105.092 48.8213L105.443 48.5242L107.552 48.3509C108.371 48.2026 108.887 47.9068 109.168 47.4614L109.52 46.3492V31.5177L109.285 30.4299L108.888 30.1828C108.77 30.0596 108.583 29.9858 108.301 29.9357C107.95 29.912 107.528 29.9858 107.084 30.1828L105.89 30.5294L105.21 30.3561C105.093 30.1828 105.14 30.0596 105.303 29.9858L106.31 29.5404C108.605 28.8235 110.456 28.0823 111.745 27.3167L113.337 26.4015L114.04 26.4502L114.321 27.069V32.5067C116.078 29.491 117.483 27.6376 118.444 27.0189C119.029 26.6486 119.591 26.3514 120.013 26.2282L120.833 26.1544C121.348 26.1043 121.934 26.2776 122.589 26.723C123.48 27.2666 123.948 28.0823 123.994 29.12C124.041 29.9858 123.806 30.654 123.291 31.1718C122.823 31.5922 122.354 31.7167 121.933 31.5922C121.535 31.5184 121.23 31.3451 121.02 31.098L120.364 30.2336C119.849 29.4416 119.357 29.1945 118.772 29.4179C118.09 29.6135 117.388 30.1584 116.661 31.0229ZM67.7092 10.7036C66.842 10.7036 66.1396 11.0251 65.5547 11.6431C64.9222 12.2612 64.6176 13.0518 64.6638 13.967C64.6176 14.8321 64.9216 15.5741 65.5547 16.1921C66.1396 16.8101 66.8426 17.131 67.7092 17.131C68.5282 17.131 69.255 16.8094 69.8399 16.1921C70.4249 15.5741 70.7533 14.8328 70.7533 13.967C70.7533 13.0518 70.4249 12.2612 69.8399 11.6431C69.255 11.0251 68.5282 10.7036 67.7092 10.7036ZM80.123 30.4292C80.9658 29.2432 82.0209 28.2543 83.2851 27.4636C84.4102 26.7711 85.5339 26.3264 86.7051 26.103L91.0385 25.8322C92.6067 25.906 94.0601 26.2275 95.3718 26.8449C98.534 28.328 100.524 31.0479 101.273 35.0025C102.046 39.0072 101.391 42.3946 99.3293 45.1382C97.5731 47.4614 95.2538 48.9445 92.3264 49.5869C89.2586 50.3038 86.4011 50.0811 83.8239 48.9696C80.4738 47.5352 78.4374 44.6927 77.7806 40.5398C77.195 36.6102 77.9678 33.2723 80.123 30.4292ZM93.8478 29.3177C92.4194 27.6376 90.6158 26.8957 88.4369 27.0926C86.3299 27.316 84.7135 28.5507 83.6591 30.899C82.6995 33.0252 82.3474 35.6219 82.6995 38.6864C82.9561 41.7271 83.8707 44.1492 85.3453 46.0033C86.9149 47.9562 88.6954 48.7719 90.6857 48.4016C92.7703 47.9813 94.2936 46.7939 95.3006 44.8173C96.2839 42.7906 96.6347 40.1702 96.4006 36.8329C96.1203 33.4957 95.3013 31.0229 93.8478 29.3177Z" fill="#1B1B1B"/>
<path fill-rule="evenodd" clip-rule="evenodd" d="M61.2208 30.4056V30.6527L60.7051 30.3061V30.4293L60.752 30.6527H60.6814C60.6814 30.6026 60.6814 30.4794 60.6814 30.3555V30.1822H60.7051L61.1734 30.5538V30.1822H61.267L61.2208 30.4056Z" fill="#1B1B1B"/>
<path fill-rule="evenodd" clip-rule="evenodd" d="M62.0872 30.2323H61.8062V30.4056H62.0404V30.4293H61.8062V30.6026H62.0872V30.6533H61.7363V30.1822H62.0872V30.2323Z" fill="#1B1B1B"/>
<path fill-rule="evenodd" clip-rule="evenodd" d="M63.3758 30.1822H63.3996L63.1654 30.6527H63.0949L62.9076 30.281L62.6966 30.6527H62.6728C62.5555 30.4293 62.4625 30.281 62.4387 30.1822H62.5561L62.6966 30.5538L62.9076 30.1822H62.9775L63.1417 30.5538L63.329 30.1822H63.3758Z" fill="#1B1B1B"/>
<path fill-rule="evenodd" clip-rule="evenodd" d="M64.0313 30.4293L64.0781 30.6533H63.9614V30.48L63.7273 30.1822H63.844L64.0313 30.4293L64.2186 30.1822H64.3129L64.0313 30.4293Z" fill="#1B1B1B"/>
<path fill-rule="evenodd" clip-rule="evenodd" d="M64.6874 30.2816C64.7335 30.2329 64.8516 30.1828 64.9683 30.1828C65.0863 30.1828 65.1562 30.2329 65.2499 30.2816C65.2723 30.3067 65.3198 30.3554 65.3198 30.4299L65.2499 30.6032C65.1562 30.6533 65.0857 30.6533 64.9683 30.6533C64.8516 30.6533 64.7342 30.6533 64.6874 30.6032L64.5693 30.4299C64.57 30.3554 64.6174 30.3067 64.6874 30.2816ZM65.1562 30.2816L64.9683 30.2329L64.7816 30.2816C64.7342 30.3067 64.688 30.3554 64.688 30.4299C64.688 30.48 64.7342 30.5287 64.7816 30.5544L64.9683 30.6533C65.0382 30.6533 65.1325 30.6032 65.1562 30.5544C65.2024 30.5294 65.2499 30.4807 65.2499 30.4299C65.2499 30.3554 65.2024 30.3067 65.1562 30.2816Z" fill="#1B1B1B"/>
<path fill-rule="evenodd" clip-rule="evenodd" d="M65.8587 30.2323L65.835 30.4056H65.9049C66.0217 30.4056 66.0929 30.3555 66.0929 30.3067C66.0929 30.2817 66.0691 30.233 65.9511 30.233L65.8587 30.2323ZM65.9755 30.1822C66.0935 30.1822 66.1859 30.2323 66.1859 30.3067L66.0929 30.4056L65.9748 30.4293L66.2564 30.6527H66.1384L65.8575 30.4293H65.835L65.8587 30.6527H65.7407V30.1822H65.9755Z" fill="#1B1B1B"/>
<path fill-rule="evenodd" clip-rule="evenodd" d="M67.1467 30.1822L66.8427 30.4056L67.1467 30.6533H67.0306L66.7722 30.4293V30.4056L66.7247 30.4293L66.7722 30.6533H66.6548V30.1822H66.7722L66.7247 30.4056H66.7722L67.0768 30.1822H67.1467Z" fill="#1B1B1B"/>
</g>
<defs>
<filter id="filter0_d_1_312" x="0" y="0" width="128" height="58" filterUnits="userSpaceOnUse" color-interpolation-filters="sRGB">
<feFlood flood-opacity="0" result="BackgroundImageFix"/>
<feColorMatrix in="SourceAlpha" type="matrix" values="0 0 0 0 0 0 0 0 0 0 0 0 0 0 0 0 0 0 127 0" result="hardAlpha"/>
<feOffset dy="4"/>
<feGaussianBlur stdDeviation="2"/>
<feComposite in2="hardAlpha" operator="out"/>
<feColorMatrix type="matrix" values="0 0 0 0 0 0 0 0 0 0 0 0 0 0 0 0 0 0 0.25 0"/>
<feBlend mode="normal" in2="BackgroundImageFix" result="effect1_dropShadow_1_312"/>
<feBlend mode="normal" in="SourceGraphic" in2="effect1_dropShadow_1_312" result="shape"/>
</filter>
</defs>
</svg>
